<?xml version="1.0" encoding="utf-8"?>
<!-- Generator: Adobe Illustrator 24.0.1, SVG Export Plug-In . SVG Version: 6.00 Build 0)  -->
<svg version="1.1" id="Layer_1" xmlns="http://www.w3.org/2000/svg" xmlns:xlink="http://www.w3.org/1999/xlink" x="0px" y="0px"
	 viewBox="0 0 348.9 349.3" style="enable-background:new 0 0 348.9 349.3;" xml:space="preserve">
<style type="text/css">
	.st0{fill:#FFFFFF;}
	.st1{fill:#8EB84A;}
</style>
<g>
	<path class="st0" d="M343.5,33.2c2.5-3.6,2.1-8.4-1-11.4l-14-14c-3.7-3.7-9.6-3.7-13.3,0l-93.3,93.3l0,0l-61.5,61.5
		c-3.7,3.7-3.7,9.6,0,13.3l17.9,17.9c3.7,3.7,9.6,3.7,13.3,0l39.6-39.6c2.7-2.7,7.2-1.4,8.2,2.2c8.8,31.4-5.5,67.9-43,82.6
		c-14.1,5.6-30.1,5.5-44.2,0c-50.3-19.8-58.8-78.9-25.6-112.1c15.4-15.4,36.5-21.8,56.6-19.2c5.9,0.8,11.2-3.6,11-9.6l-1.3-35.8
		c-0.2-5.1-4.3-9.1-9.4-9.1l-19.6,0c-4.6,0-8.5,3.3-9.3,7.8l-0.8,4.2c-1.2,7-6,12.9-12.5,15.6l-9,3.7c-7.2,3-15.5,2.1-21.9-2.4
		l-2.5-1.8c-3.7-2.6-8.8-2.2-12,1.1L81,96.1c-3.2,3.2-3.7,8.3-1.1,12l1.8,2.5c4.5,6.4,5.4,14.6,2.4,21.9l-3.2,7.9
		c-3,7.3-9.5,12.5-17.2,13.9l-3,0.5c-4.5,0.8-7.8,4.7-7.8,9.3V185c0,4.6,3.3,8.5,7.8,9.3l3,0.5c7.7,1.4,14.3,6.6,17.3,13.9l3.7,9
		c2.7,6.5,1.9,14-2.2,19.8L80,241c-2.6,3.7-2.2,8.8,1.1,12l14.8,14.8c3.2,3.2,8.3,3.7,12,1.1l2.5-1.8c6.4-4.5,14.6-5.4,21.9-2.4
		l7.9,3.3c7.3,3,12.5,9.5,13.9,17.3l0.5,3c0.8,4.5,4.7,7.8,9.3,7.8l20.9,0c4.6,0,8.5-3.3,9.3-7.8l0.5-2.9
		c1.4-7.8,6.6-14.3,13.9-17.3l7.9-3.3c7.2-3,15.4-2.1,21.8,2.4l2.6,1.8c3.7,2.6,8.8,2.2,12-1.1l14.8-14.8c3.2-3.2,3.7-8.3,1.1-12
		l-1.8-2.6c-4.5-6.4-5.4-14.6-2.4-21.8l3.3-7.9c3-7.3,9.5-12.5,17.3-13.9l3-0.5c4.5-0.8,7.8-4.7,7.8-9.3l0-20.9
		c0-4.6-3.3-8.5-7.8-9.3l-4.2-0.8c-7-1.2-12.8-6-15.6-12.5l-4.2-10.1c-2.6-6.4-6.2-12.6-2-16.9L343.5,33.2z"/>
	<path class="st1" d="M299,102.5c-2,2-2.4,5-1.1,7.5c27.9,53.4,19.1,121.2-26.8,165.3c-22.2,21.4-50.3,33.7-79.4,37.3
		c-2.2,0.6-4.5,1-6.9,1h-6.2c-2.5,0.1-5,0.1-7.5,0h-7.3c-2.5,0-4.8-0.4-7.1-1c-28.1-3.5-55.3-15.1-77.2-35.3
		c-58.5-54.1-59.8-145.7-4-201.5C120,31.3,187.2,23.3,240.1,51.5c2.5,1.3,5.5,1,7.5-1l16.3-16.3c2.9-2.9,2.4-8-1.2-10.1
		C194.2-16.2,104.2-6,46.9,54.9c-61.7,65.6-62.6,170.5-2,237.1c67.5,74.3,183,76.3,253.1,6.2c57.1-57.1,66.1-144,27.6-210.8
		c-2.1-3.6-7.2-4.2-10.2-1.2L299,102.5z"/>
</g>
</svg>
