<?xml version="1.0" encoding="utf-8"?>
<!-- Generator: Adobe Illustrator 24.0.0, SVG Export Plug-In . SVG Version: 6.00 Build 0)  -->
<svg version="1.1" id="Layer_1" xmlns="http://www.w3.org/2000/svg" xmlns:xlink="http://www.w3.org/1999/xlink" x="0px" y="0px"
	 viewBox="0 0 715.6 121" style="enable-background:new 0 0 715.6 121;" xml:space="preserve">
<style type="text/css">
	.st0{fill:#393B43;}
	.st1{fill:#8EB849;}
</style>
<g>
	<path class="st0" d="M118.9,11.5c0.9-1.2,0.7-2.9-0.4-4l-4.8-4.8c-1.3-1.3-3.3-1.3-4.6,0L76.8,35l0,0L55.5,56.3
		c-1.3,1.3-1.3,3.3,0,4.6l6.2,6.2c1.3,1.3,3.3,1.3,4.6,0L80,53.4c0.9-0.9,2.5-0.5,2.9,0.8C85.9,65,81,77.6,68,82.7
		c-4.9,1.9-10.4,1.9-15.3,0c-17.4-6.9-20.4-27.3-8.9-38.8c5.3-5.3,12.6-7.6,19.6-6.6c2.1,0.3,3.9-1.3,3.8-3.3l-0.4-12.4
		c-0.1-1.8-1.5-3.1-3.3-3.1l-6.8,0c-1.6,0-2.9,1.1-3.2,2.7l-0.3,1.5c-0.4,2.4-2.1,4.5-4.3,5.4l-3.1,1.3c-2.5,1-5.4,0.7-7.6-0.8
		l-0.9-0.6c-1.3-0.9-3.1-0.7-4.2,0.4l-5.1,5.1c-1.1,1.1-1.3,2.9-0.4,4.2l0.6,0.9c1.5,2.2,1.9,5.1,0.8,7.6L28,48.6
		c-1,2.5-3.3,4.3-6,4.8l-1,0.2c-1.6,0.3-2.7,1.6-2.7,3.2v7.2c0,1.6,1.1,2.9,2.7,3.2l1,0.2c2.7,0.5,4.9,2.3,6,4.8l1.3,3.1
		c0.9,2.3,0.7,4.8-0.7,6.9l-0.8,1.2c-0.9,1.3-0.7,3.1,0.4,4.2l5.1,5.1c1.1,1.1,2.9,1.3,4.2,0.4l0.9-0.6c2.2-1.5,5.1-1.9,7.6-0.8
		l2.7,1.1c2.5,1,4.3,3.3,4.8,6l0.2,1c0.3,1.6,1.6,2.7,3.2,2.7l7.2,0c1.6,0,2.9-1.1,3.2-2.7l0.2-1c0.5-2.7,2.3-4.9,4.8-6l2.7-1.1
		c2.5-1,5.3-0.7,7.5,0.8l0.9,0.6c1.3,0.9,3.1,0.7,4.2-0.4l5.1-5.1c1.1-1.1,1.3-2.9,0.4-4.2l-0.6-0.9c-1.5-2.2-1.9-5.1-0.8-7.6
		l1.1-2.7c1-2.5,3.3-4.3,6-4.8l1-0.2c1.6-0.3,2.7-1.6,2.7-3.2l0-7.2c0-1.6-1.1-2.9-2.7-3.2l-1.5-0.3c-2.4-0.4-4.4-2.1-5.4-4.3
		l-1.4-3.5c-0.9-2.2-2.1-4.4-0.7-5.8L118.9,11.5z"/>
	<path class="st1" d="M103.5,35.5c-0.7,0.7-0.8,1.7-0.4,2.6c9.7,18.5,6.6,42-9.3,57.2c-7.7,7.4-17.4,11.7-27.5,12.9
		c-0.8,0.2-1.6,0.3-2.4,0.3h-2.1c-0.9,0-1.7,0-2.6,0h-2.5c-0.9,0-1.7-0.1-2.5-0.4C44.6,107,35.1,103,27.6,96
		C7.3,77.3,6.8,45.6,26.2,26.2c15.4-15.4,38.7-18.2,57-8.4c0.9,0.5,1.9,0.3,2.6-0.4l5.6-5.6c1-1,0.8-2.8-0.4-3.5
		C67.3-5.6,36.1-2.1,16.2,19c-21.3,22.7-21.7,59-0.7,82.1c23.4,25.7,63.4,26.4,87.6,2.1c19.8-19.8,22.9-49.9,9.6-73
		c-0.7-1.3-2.5-1.5-3.5-0.4L103.5,35.5z"/>
</g>
<g>
	<g>
		<path class="st0" d="M172.4,60.3h10.2v16.1c-4.5,5-10.8,7.5-18.7,7.5c-6.7,0-12.3-2.2-16.8-6.6c-4.5-4.4-6.8-10-6.8-16.8
			c0-6.7,2.3-12.4,6.9-16.9s10.2-6.8,16.7-6.8c6.5,0,12.2,2.1,17,6.4l-5.3,7.6c-2-1.8-3.9-3-5.6-3.7c-1.7-0.7-3.6-1-5.6-1
			c-3.9,0-7.1,1.3-9.8,3.9c-2.6,2.6-4,6.1-4,10.4s1.3,7.7,3.8,10.3c2.5,2.6,5.6,3.9,9.1,3.9s6.4-0.7,8.8-2V60.3z"/>
		<path class="st0" d="M228.4,38v9h-22.6v9.4h20.4v8.7h-20.4v9.4h23.4v9h-33.5V38H228.4z"/>
		<path class="st0" d="M274.4,83.5l-4.2-9.8h-19.1l-4.2,9.8h-10.8L255.8,38h9.8l19.6,45.5H274.4z M260.7,51.5L255,64.7h11.4
			L260.7,51.5z"/>
		<path class="st0" d="M331.3,53.1c0,7.3-2.9,12-8.7,14.1l11.5,16.3h-12.5L311.6,69h-7v14.5h-10.1V38h17.2c7.1,0,12.1,1.2,15.1,3.6
			C329.8,44,331.3,47.8,331.3,53.1z M319.1,58.5c1.3-1.1,1.9-2.9,1.9-5.4c0-2.4-0.7-4.1-2-5s-3.6-1.4-6.8-1.4h-7.6v13.5h7.4
			C315.4,60.2,317.8,59.6,319.1,58.5z"/>
		<path class="st1" d="M345.6,83.5V38h10.1v36.4h19.4v9H345.6z"/>
		<path class="st1" d="M419.2,38v9h-22.6v9.4H417v8.7h-20.4v9.4H420v9h-33.5V38H419.2z"/>
		<path class="st1" d="M465.3,83.5l-4.2-9.8H442l-4.2,9.8H427L446.6,38h9.8l19.6,45.5H465.3z M451.6,51.5l-5.7,13.2h11.4L451.6,51.5
			z"/>
		<path class="st1" d="M522.2,53.1c0,7.3-2.9,12-8.7,14.1L525,83.5h-12.5L502.4,69h-7v14.5h-10.1V38h17.2c7.1,0,12.1,1.2,15.1,3.6
			C520.7,44,522.2,47.8,522.2,53.1z M509.9,58.5c1.3-1.1,1.9-2.9,1.9-5.4c0-2.4-0.7-4.1-2-5c-1.3-0.9-3.6-1.4-6.8-1.4h-7.6v13.5h7.4
			C506.3,60.2,508.7,59.6,509.9,58.5z"/>
		<path class="st1" d="M568.3,38h10.1v45.5h-10.1L546.6,55v28.5h-10.1V38h9.5l22.3,29.3V38z"/>
		<path class="st1" d="M593.5,38h10.1v45.5h-10.1V38z"/>
		<path class="st1" d="M650.6,38h10.1v45.5h-10.1L628.9,55v28.5h-10.1V38h9.5l22.3,29.3V38z"/>
		<path class="st1" d="M705.4,60.3h10.2v16.1c-4.5,5-10.8,7.5-18.7,7.5c-6.7,0-12.3-2.2-16.8-6.6c-4.5-4.4-6.8-10-6.8-16.8
			c0-6.7,2.3-12.4,6.9-16.9s10.2-6.8,16.7-6.8c6.5,0,12.2,2.1,17,6.4l-5.3,7.6c-2-1.8-3.9-3-5.6-3.7c-1.7-0.7-3.6-1-5.6-1
			c-3.9,0-7.1,1.3-9.8,3.9c-2.6,2.6-4,6.1-4,10.4s1.3,7.7,3.8,10.3c2.5,2.6,5.6,3.9,9.1,3.9s6.4-0.7,8.8-2V60.3z"/>
	</g>
</g>
</svg>
