<?xml version="1.0" encoding="utf-8"?>
<!-- Generator: Adobe Illustrator 23.1.0, SVG Export Plug-In . SVG Version: 6.00 Build 0)  -->
<svg version="1.1" id="Layer_1" xmlns="http://www.w3.org/2000/svg" xmlns:xlink="http://www.w3.org/1999/xlink" x="0px" y="0px"
	 viewBox="0 0 178.3 160.3" style="enable-background:new 0 0 178.3 160.3;" xml:space="preserve">
<style type="text/css">
	.st0{fill:#1E3666;}
</style>
<path class="st0" d="M167.9,99.6h-13.6v50.3c0,5.8-4.7,10.4-10.4,10.4h-22c-5.2,0-9.4-4.2-9.4-9.4v-41.1c0-5.1-3.6-9.3-8.4-10.2
	c-0.7-0.1-1.3-0.2-2-0.2H76.4c-0.7,0-1.4,0.1-2,0.2c-4.8,0.9-8.4,5.2-8.4,10.2v41.1c0,5.2-4.2,9.4-9.4,9.4h-22
	c-5.8,0-10.4-4.7-10.4-10.4V99.6H10.5c-9.3,0-14-11.2-7.4-17.8L81.8,3.1C85.9-1,92.5-1,96.5,3.1l78.7,78.7
	C181.8,88.3,177.2,99.6,167.9,99.6z"/>
<path d="M104,99.6H74.3c0.7-0.1,1.3-0.2,2-0.2H102C102.7,99.4,103.4,99.5,104,99.6z"/>
</svg>
