<?xml version="1.0" encoding="utf-8"?>
<!-- Generator: Adobe Illustrator 24.0.1, SVG Export Plug-In . SVG Version: 6.00 Build 0)  -->
<svg version="1.1" id="Layer_1" xmlns="http://www.w3.org/2000/svg" xmlns:xlink="http://www.w3.org/1999/xlink" x="0px" y="0px"
	 viewBox="0 0 296 81.5" style="enable-background:new 0 0 296 81.5;" xml:space="preserve">
<style type="text/css">
	.Arched_x0020_Green{fill:url(#SVGID_1_);stroke:#FFFFFF;stroke-width:0.25;stroke-miterlimit:1;}
	.st0{fill:url(#SVGID_2_);}
	.st1{fill:#CD1543;}
	.st2{fill:#FFFFFF;}
</style>
<linearGradient id="SVGID_1_" gradientUnits="userSpaceOnUse" x1="55.6262" y1="760.7722" x2="56.3333" y2="760.0651">
	<stop  offset="0" style="stop-color:#20AC4B"/>
	<stop  offset="0.9831" style="stop-color:#19361A"/>
</linearGradient>
<g>
	<g>
		
			<radialGradient id="SVGID_2_" cx="17.4639" cy="45.4161" r="32.1319" gradientTransform="matrix(1.0552 0 0 1.0556 7.491 -7.1671)" gradientUnits="userSpaceOnUse">
			<stop  offset="0.25" style="stop-color:#FFFFFF"/>
			<stop  offset="0.84" style="stop-color:#D0B38D"/>
		</radialGradient>
		<path class="st0" d="M25.9,81.3c-0.2,0-0.6-0.5-1-1.1l-0.1-0.1l-0.1,0C7.8,76.1-1.6,50.1,0.5,29.3c0.2-2.4,0.6-4.7,1.2-6.8
			c0.6-2.1,1.3-4.2,2.2-6c1-2,2.2-3.8,3.5-5.3c2.8-3.1,6.3-4.7,10.1-4.8c0.1,0,0.3,0,0.4-0.2c0.7-1.3,2.4-2.3,3.6-2.5l0.2,0l0-0.2
			c0-0.1,0.8-3.3,4.3-3.3c3.4,0,4.3,3.3,4.3,3.3l0,0.2l0.2,0c1.3,0.2,3,1.1,3.6,2.5c0,0.2,0.3,0.2,0.3,0.2c3.8,0.1,7.2,1.7,10.1,4.8
			c1.5,1.7,2.9,3.8,4,6.3l0.2,0.5c1.4,3.3,2.3,7.1,2.7,11.2c2.1,20.9-7.3,46.9-24.2,50.8l-0.1,0l-0.1,0.1
			C26.5,80.8,26.1,81.2,25.9,81.3z"/>
		<path d="M51.5,29.3c-0.2-1.7-0.4-3.4-0.8-5.1c-0.3-1.6-0.8-3.1-1.3-4.6c-0.6-1.6-1.2-3.1-2.1-4.6c-0.8-1.4-1.7-2.7-2.8-3.8
			C41.8,8,38.2,6.3,34.4,6.2l-0.1,0c-0.6-1.4-2.4-2.5-3.9-2.7c0,0-0.8-3.5-4.5-3.5c-3.7,0-4.5,3.5-4.5,3.5c-1.5,0.2-3.3,1.3-3.9,2.7
			l-0.1,0C13.6,6.3,10.1,8,7.2,11.1c-1.1,1.2-2,2.5-2.8,3.8c-0.8,1.5-1.5,3-2.1,4.6c-0.5,1.5-1,3-1.3,4.6c-0.4,1.7-0.6,3.4-0.8,5.1
			c-2.2,21.1,7.3,47.1,24.4,51.1c0.3,0.4,0.9,1.2,1.2,1.2s0.9-0.8,1.2-1.2C44.2,76.4,53.7,50.4,51.5,29.3z M25.9,0.8
			c3,0,3.7,2.6,3.7,2.6c-1.5,0.1-2.9,1-3.6,2.3c0,0,0,0.1-0.1,0.1c0,0-0.1-0.1-0.1-0.1c-0.7-1.3-2.1-2.2-3.6-2.3
			C22.3,3.4,22.9,0.8,25.9,0.8z M24.2,4.8c0.7,0.4,1.3,1.1,1.5,2c0.1,0.2,0.2,0.4,0.2,0.4c0.1,0,0.2-0.1,0.2-0.4
			c0.2-0.8,0.8-1.5,1.5-2c2.2-1.3,4.7-0.5,5.6,1.5c-0.5,0.1-1,0.2-1.6,0.4c-0.9,0.3-1.6,0.7-2.2,1.2c-1.4,1.3-2.6,3.2-2.8,5.7
			c-0.6,6.8,7.2,5.8,7.6,5.7c1,0,1.8-1.6,1.8-3.7c0-2.1-0.8-3.7-1.8-3.7c-0.6,0-1.7,0.5-1.8,2.4c-0.1,1.3,0.6,3.1,1.4,3.2
			c0.4,0.1,0.8-0.7,1-1.5c0.1-0.7,0.1-1.7-0.6-1.9c-0.2,0-0.4,0.1-0.4,0.3c0,0.2,0.4,0.5,0.4,1.3c0,1.2-1.2,0.6-1-1.3
			c0.1-1.6,1-1.5,1-1.5c0.5,0,1.2,1,1.2,2.8c0,1.6-0.8,3.4-2.3,2.5c-1.3-0.9-1.8-3.1-1.4-4.7c0.2-0.8,0.8-2.8,2.9-2.8
			c3,0,5.9,1.6,8.1,4.6C42.5,16,41,19,36,21.9c-0.1,0.1-0.3,0.1-0.3,0.1c-1.5-0.6-2.9-1-4.6-0.9c-1.5,0.1-2.9,0.4-4.3,0.7
			c-0.3,0.1-0.6,0.1-0.9,0.1h0c-0.3,0-0.6-0.1-0.9-0.1c-1.4-0.3-2.9-0.6-4.3-0.7c-1.7-0.1-3.1,0.3-4.6,0.9c0,0-0.2-0.1-0.3-0.1
			C10.9,19,9.3,16,9,15.2c2.3-3,5.1-4.6,8.1-4.6c2.1,0,2.8,2.1,2.9,2.8c0.4,1.7-0.1,3.8-1.4,4.7c-1.5,0.9-2.3-0.8-2.3-2.5
			c0-1.8,0.7-2.8,1.2-2.8c0,0,0.9-0.1,1,1.5c0.2,1.9-1,2.4-1,1.3c0-0.8,0.4-1.1,0.4-1.3c0-0.2-0.2-0.3-0.4-0.3
			c-0.6,0.2-0.7,1.2-0.6,1.9c0.1,0.8,0.5,1.6,1,1.5c0.8-0.1,1.5-1.9,1.4-3.2c-0.1-1.9-1.1-2.4-1.8-2.4c-1,0-1.8,1.6-1.8,3.7
			c0,2.1,0.8,3.7,1.8,3.7c0.4,0,8.2,1.1,7.6-5.7c-0.2-2.5-1.5-4.4-2.8-5.7C21.7,7.4,21,7,20.1,6.7c-0.6-0.2-1.1-0.3-1.6-0.4
			C19.5,4.4,22,3.5,24.2,4.8z M9.4,33.5c-0.2,1.3-0.3,2.4-0.3,3.1C9,39,9.1,41.5,9.4,44c0.3,2.3,0.8,4.6,1.5,6.8
			c1,3,2.3,5.9,3.9,8.7c-1.6,1.5-4,2-4.8,2.2C5.7,53.1,3.5,42,4,32C5,32.5,6.9,33.2,9.4,33.5z M4,31.4c0.4-6.8,2.1-12.2,4.7-15.8
			c0.4,1.2,2.4,4.1,6.9,6.7C11.8,24.7,10,29.4,9.4,33C6.9,32.7,4.9,31.9,4,31.4z M15.1,59.9c2.9,5,5.7,7.9,7.9,9.5
			c-0.8,2-2.7,3.6-3.3,4.1c-3.7-2.5-6.9-6.5-9.4-11.3C11.2,62,13.5,61.4,15.1,59.9z M23.4,69.7c1.2,0.8,2.3,1.3,2.5,1.4
			c0.2,0,1.3-0.5,2.5-1.4c0.8,1.9,2.5,3.4,3.3,4.1c-1.1,0.7-2.2,1.2-3.3,1.7c0,0,0-0.1,0-0.1c-0.2-1.2-1.8-1.5-2.4-1.5
			c-0.6,0-2.2,0.3-2.4,1.5c0,0,0,0.1,0,0.1c-1.2-0.4-2.3-1-3.3-1.7C20.9,73.2,22.6,71.7,23.4,69.7z M28.9,69.4
			c2.2-1.6,5-4.5,7.9-9.5c1.6,1.4,3.9,2,4.8,2.2c-2.5,4.8-5.7,8.8-9.4,11.3C31.5,73,29.6,71.4,28.9,69.4z M37,59.5
			c1.6-2.8,2.9-5.7,3.9-8.7c0.7-2.2,1.2-4.5,1.5-6.8c0.3-2.5,0.5-4.9,0.4-7.4c0-0.7-0.1-1.8-0.3-3.1c2.5-0.2,4.4-1,5.4-1.5
			c0.5,10-1.7,21.1-6,29.7C41,61.5,38.6,61,37,59.5z M42.4,33c-0.6-3.5-2.3-8.2-6.1-10.6c4.5-2.6,6.5-5.5,6.9-6.7
			c2.5,3.6,4.2,8.9,4.7,15.8C46.9,31.9,44.9,32.7,42.4,33z M23.1,78.8c-1.9-0.6-3.8-1.6-5.5-2.7c-1.1-0.7-2.1-1.6-3-2.4
			c-0.8-0.7-1.5-1.5-2.2-2.3c-0.5-0.6-0.9-1.1-1.4-1.7c-2.1-2.8-3.8-5.9-5.2-9c-1.3-3.1-2.4-6.3-3.2-9.5C1.8,47.8,1.3,44.4,1,41
			c-0.3-3.4-0.3-6.8-0.1-10.1c0.1-1.8,0.4-3.6,0.7-5.4c0.3-1.8,0.8-3.5,1.3-5.2c0.5-1.6,1.2-3.1,2-4.5c0.8-1.5,1.8-2.9,2.9-4.1
			c1.1-1.1,2.3-2.1,3.7-2.9c0.6-0.3,1.2-0.6,1.8-0.8c0.3-0.1,0.6-0.2,1-0.3c0.3-0.1,0.7-0.2,1-0.2c0.8-0.1,1.6-0.2,2.4-0.2
			c0.7,0,2.2,0.1,3.6,1c1.5,1.1,2.9,2.9,3.1,5.6c0.4,4.2-3.9,4.9-4.8,4.9c-0.1,0-0.2-0.1,0.2-0.6c1-1.3,1.3-3.2,1-4.8
			c-0.4-1.9-1.8-3.4-3.8-3.4c-3,0-5.6,1.5-7.6,3.6c-1.9,2.1-3.2,4.7-4.2,7.3c-1.2,3.4-1.8,7-2.1,10.6c-0.2,3.3-0.1,6.6,0.2,9.9
			c0.3,3.3,1,6.7,1.8,9.9c0.8,3.2,1.9,6.2,3.3,9.2c1.4,3,3.1,5.9,5.1,8.4c2.1,2.6,4.6,4.9,7.6,6.4c0.7,0.3,1.4,0.6,2.1,0.9
			c0,1.1,0.2,2.1,0.6,2.9C23.5,79,23.5,79,23.1,78.8z M26.2,80.3c0,0-0.1,0.2-0.3,0.2c-0.1,0-0.3-0.2-0.3-0.2
			c-0.7-0.9-1.8-2.7-1.4-4.8c0.1-0.6,1.1-0.9,1.7-0.9c0.6,0,1.6,0.3,1.7,0.9C28,77.6,26.9,79.4,26.2,80.3z M50.9,41
			c-0.3,3.4-0.9,6.8-1.7,10.1c-0.8,3.3-1.9,6.5-3.2,9.5c-1.4,3.2-3.1,6.3-5.2,9c-0.4,0.6-0.9,1.1-1.4,1.7c-0.7,0.8-1.4,1.6-2.2,2.3
			c-0.9,0.9-2,1.7-3,2.4c-1.7,1.2-3.5,2.1-5.5,2.7c-0.4,0.1-0.4,0.2-0.9,0.3c0.4-0.8,0.7-1.8,0.6-2.9c0.7-0.3,1.4-0.6,2.1-0.9
			c3-1.5,5.5-3.8,7.6-6.4c2.1-2.6,3.7-5.5,5.1-8.4c1.4-3,2.5-6.1,3.3-9.2c0.9-3.2,1.5-6.6,1.8-9.9c0.3-3.3,0.4-6.6,0.2-9.9
			c-0.2-3.6-0.8-7.2-2.1-10.6c-0.9-2.7-2.3-5.3-4.2-7.3c-2-2.1-4.6-3.6-7.6-3.6c-2,0-3.3,1.5-3.8,3.4c-0.3,1.6,0,3.5,1,4.8
			c0.4,0.4,0.4,0.6,0.2,0.6c-0.8,0-5.1-0.7-4.8-4.9c0.2-2.7,1.6-4.6,3.1-5.6c1.4-0.9,3-1,3.6-1c0.8,0,1.6,0,2.4,0.2
			c0.3,0,0.7,0.2,1,0.2c0.3,0.1,0.6,0.2,1,0.3c0.6,0.2,1.2,0.5,1.8,0.8c1.4,0.8,2.6,1.8,3.7,2.9c1.2,1.2,2.1,2.7,2.9,4.1
			c0.8,1.5,1.4,3,2,4.5c0.6,1.7,1,3.5,1.3,5.2c0.3,1.8,0.5,3.6,0.7,5.4C51.2,34.2,51.1,37.6,50.9,41z"/>
		<path class="st1" d="M41.8,36.7c-0.1-2.5-0.8-10.2-6.1-13.5c-1.1-0.7-2.6-1-4.1-1.1c-2.6-0.2-4.5,0.8-5.7,0.8h-0.1
			c-1.3,0-3.2-1-5.8-0.8c-1.5,0.1-3,0.4-4.1,1.1c-5.2,3.3-5.9,11-6.1,13.5c-0.4,8.9,2.4,15.8,3.3,17.7c3.6,7.9,8,13.6,12.3,15.5
			l0.3,0.2l0.3-0.2c4.3-1.9,8.7-7.5,12.3-15.5C39.4,52.5,42.2,45.6,41.8,36.7z"/>
		<path class="st2" d="M33.7,30.7v1.7l0.4-0.1c0,0,0.1,0,0.2,0c0.2,0,0.5,0,0.8,0.3c0.2,0.2,0.3,0.6,0.2,1c0,0-3.5,15.1-4.2,18
			c-0.8-3.6-4.9-23.5-4.9-23.5l0-0.1h-0.8l0,0.1c0,0-3,19.4-3.6,23.2c-0.8-3.4-4.1-17.7-4.1-17.7c0-0.1,0-0.2,0-0.3
			c0-0.4,0.1-0.7,0.3-0.9c0.3-0.2,0.6-0.2,0.7-0.2l0.3,0l0-1.7H13v1.6l0.3,0c0.1,0,0.8,0.2,0.9,0.8c0,0,6.8,29.3,7.1,30.5l0,0.1h1
			l0-0.1c0-0.2,2.8-18.4,3.3-21.8c0.7,3.4,4.2,21.6,4.2,21.8l0,0.1h0.9l6.8-30.6c0.2-0.6,0.7-0.7,0.9-0.7c0,0,0.1,0,0.1,0l0.3,0
			v-1.8H33.7z"/>
	</g>
	<g>
		<path d="M268.9,64h-0.2h-0.2h-0.2h-0.2H268h-0.2h-0.2h-0.2v-0.6v-0.6v-0.6v-0.6v-0.6v-0.6V60v-0.6v-0.6v-0.6v-0.6v-0.6v-0.6V56
			v-0.6v-0.6h0.2h0.2h0.2h0.2h0.2h0.2h0.2h0.2v0.6V56v0.6v0.6v0.6v0.6v0.6v0.6V60v0.6v0.6v0.6v0.6v0.6v0.6V64z"/>
		<path d="M218,64h-0.2h-0.2h-0.2h-0.2H217h-0.2h-0.2h-0.2v-0.6v-0.6v-0.6v-0.6v-0.6v-0.6V60v-0.6v-0.6v-0.6v-0.6v-0.6v-0.6V56v-0.6
			v-0.6h0.2h0.2h0.2h0.2h0.2h0.2h0.2h0.2v0.6V56v0.6v0.6v0.6v0.6v0.6v0.6V60v0.6v0.6v0.6v0.6v0.6v0.6V64z"/>
		<path d="M172,64h-0.2h-0.2h-0.2h-0.2h-0.2h-0.2h-0.2h-0.2v-0.6v-0.6v-0.6v-0.6v-0.6v-0.6V60v-0.6v-0.6v-0.6v-0.6v-0.6v-0.6V56
			v-0.6v-0.6h0.2h0.2h0.2h0.2h0.2h0.2h0.2h0.2v0.6V56v0.6v0.6v0.6v0.6v0.6v0.6V60v0.6v0.6v0.6v0.6v0.6v0.6V64z"/>
		<path d="M62.7,62.8c0.4,0,0.7-0.1,0.9-0.2s0.5-0.3,0.7-0.5c0.2-0.2,0.3-0.5,0.4-0.8c0.1-0.3,0.2-0.6,0.2-1v-5.5h1.5v5.5
			c0,0.5-0.1,1-0.3,1.5c-0.2,0.5-0.4,0.9-0.7,1.2c-0.3,0.3-0.7,0.6-1.2,0.8c-0.5,0.2-1,0.3-1.6,0.3c-0.6,0-1.1-0.1-1.6-0.3
			c-0.5-0.2-0.9-0.5-1.2-0.8c-0.3-0.3-0.6-0.7-0.7-1.2c-0.2-0.5-0.3-1-0.3-1.5v-5.5h1.5v5.5c0,0.4,0.1,0.7,0.2,1
			c0.1,0.3,0.2,0.6,0.4,0.8c0.2,0.2,0.4,0.4,0.7,0.5C62.1,62.7,62.4,62.8,62.7,62.8z"/>
		<path d="M76.1,54.8V64h-0.8c-0.1,0-0.2,0-0.3-0.1s-0.2-0.1-0.2-0.2l-5-6.5c0,0.1,0,0.2,0,0.4c0,0.1,0,0.2,0,0.3v6h-1.3v-9.2h0.8
			c0.1,0,0.1,0,0.2,0c0,0,0.1,0,0.1,0s0.1,0,0.1,0.1c0,0,0.1,0.1,0.1,0.1l5,6.5c0-0.1,0-0.3,0-0.4s0-0.2,0-0.4v-6H76.1z"/>
		<path d="M114.8,64h-0.2h-0.2h-0.2H114h-0.2h-0.2h-0.2h-0.2v-0.6v-0.6v-0.6v-0.6v-0.6v-0.6V60v-0.6v-0.6v-0.6v-0.6v-0.6v-0.6V56
			v-0.6v-0.6h0.2h0.2h0.2h0.2h0.2h0.2h0.2h0.2v0.6V56v0.6v0.6v0.6v0.6v0.6v0.6V60v0.6v0.6v0.6v0.6v0.6v0.6V64z"/>
		<path d="M89.7,54.8L86,64h-1.3l-3.7-9.2h1.2c0.1,0,0.2,0,0.3,0.1s0.1,0.1,0.2,0.2l2.4,6c0.1,0.3,0.2,0.7,0.4,1.2
			c0-0.2,0.1-0.4,0.1-0.6c0.1-0.2,0.1-0.4,0.2-0.5l2.4-6c0-0.1,0.1-0.2,0.2-0.2s0.2-0.1,0.3-0.1H89.7z"/>
		<path d="M96.6,62.8l0,1.2h-5.7v-9.2h5.7V56h-4.2v2.8h3.4V60h-3.4v2.8H96.6z"/>
		<path d="M105.1,64h-1.3c-0.3,0-0.5-0.1-0.6-0.3l-2.1-3.1c-0.1-0.1-0.2-0.2-0.2-0.2s-0.2-0.1-0.4-0.1h-0.8V64h-1.5v-9.2h2.7
			c0.6,0,1.1,0.1,1.6,0.2c0.4,0.1,0.8,0.3,1.1,0.5c0.3,0.2,0.5,0.5,0.6,0.8c0.1,0.3,0.2,0.7,0.2,1.1c0,0.3,0,0.6-0.1,0.9
			s-0.2,0.5-0.4,0.8c-0.2,0.2-0.4,0.4-0.7,0.6c-0.3,0.2-0.6,0.3-0.9,0.4c0.2,0.1,0.3,0.3,0.5,0.5L105.1,64z M100.8,59.2
			c0.3,0,0.6,0,0.9-0.1c0.3-0.1,0.5-0.2,0.6-0.3s0.3-0.3,0.4-0.5s0.1-0.4,0.1-0.7c0-0.5-0.2-0.9-0.5-1.1c-0.3-0.3-0.8-0.4-1.5-0.4
			h-1.2v3.2H100.8z"/>
		<path d="M111.1,56.4c0,0.1-0.1,0.1-0.1,0.2c-0.1,0-0.1,0.1-0.2,0.1c-0.1,0-0.2,0-0.3-0.1c-0.1-0.1-0.2-0.1-0.4-0.2
			c-0.1-0.1-0.3-0.2-0.5-0.2c-0.2-0.1-0.4-0.1-0.7-0.1c-0.3,0-0.5,0-0.7,0.1c-0.2,0.1-0.4,0.2-0.5,0.3s-0.2,0.3-0.3,0.4
			c-0.1,0.2-0.1,0.3-0.1,0.5c0,0.2,0.1,0.4,0.2,0.6c0.1,0.2,0.3,0.3,0.5,0.4c0.2,0.1,0.4,0.2,0.7,0.3c0.3,0.1,0.5,0.2,0.8,0.3
			c0.3,0.1,0.5,0.2,0.8,0.3c0.3,0.1,0.5,0.3,0.7,0.5s0.4,0.4,0.5,0.7c0.1,0.3,0.2,0.6,0.2,1c0,0.4-0.1,0.8-0.2,1.1
			c-0.1,0.4-0.3,0.7-0.6,0.9s-0.6,0.5-1,0.6c-0.4,0.2-0.8,0.2-1.3,0.2c-0.3,0-0.6,0-0.9-0.1c-0.3-0.1-0.5-0.1-0.8-0.2
			c-0.3-0.1-0.5-0.2-0.7-0.4c-0.2-0.1-0.4-0.3-0.6-0.5l0.4-0.7c0-0.1,0.1-0.1,0.1-0.1s0.1-0.1,0.2-0.1c0.1,0,0.2,0,0.3,0.1
			c0.1,0.1,0.3,0.2,0.4,0.3s0.4,0.2,0.6,0.3c0.2,0.1,0.5,0.1,0.9,0.1c0.5,0,1-0.1,1.3-0.4c0.3-0.3,0.4-0.6,0.4-1.1
			c0-0.3-0.1-0.5-0.2-0.6c-0.1-0.2-0.3-0.3-0.5-0.4c-0.2-0.1-0.4-0.2-0.7-0.3c-0.3-0.1-0.5-0.2-0.8-0.2c-0.3-0.1-0.5-0.2-0.8-0.3
			s-0.5-0.3-0.7-0.5c-0.2-0.2-0.4-0.4-0.5-0.7s-0.2-0.6-0.2-1c0-0.3,0.1-0.7,0.2-1c0.1-0.3,0.3-0.6,0.6-0.8c0.2-0.2,0.6-0.4,0.9-0.6
			c0.4-0.1,0.8-0.2,1.2-0.2c0.5,0,1,0.1,1.5,0.2c0.4,0.2,0.8,0.4,1.1,0.7L111.1,56.4z"/>
		<path d="M123.2,56.1h-2.9V64h-1.5v-7.9H116v-1.2h7.2V56.1z"/>
		<path d="M128.7,60.4V64h-1.5v-3.6l-3.4-5.6h1.3c0.1,0,0.2,0,0.3,0.1c0.1,0.1,0.1,0.1,0.2,0.2l1.9,3.3c0.1,0.2,0.2,0.3,0.2,0.5
			c0.1,0.1,0.1,0.3,0.2,0.4c0-0.1,0.1-0.3,0.2-0.4s0.1-0.3,0.2-0.5l1.9-3.3c0-0.1,0.1-0.2,0.2-0.2c0.1-0.1,0.2-0.1,0.3-0.1h1.3
			L128.7,60.4z"/>
		<path d="M145.1,59.4c0,0.7-0.1,1.3-0.3,1.9c-0.2,0.6-0.5,1.1-0.9,1.5c-0.4,0.4-0.9,0.7-1.4,1s-1.2,0.4-1.9,0.4
			c-0.7,0-1.3-0.1-1.9-0.4s-1-0.6-1.5-1c-0.4-0.4-0.7-0.9-0.9-1.5c-0.2-0.6-0.3-1.2-0.3-1.9c0-0.7,0.1-1.3,0.3-1.9
			c0.2-0.6,0.5-1.1,0.9-1.5s0.9-0.7,1.5-1c0.6-0.2,1.2-0.4,1.9-0.4c0.7,0,1.3,0.1,1.9,0.4c0.6,0.2,1,0.6,1.4,1
			c0.4,0.4,0.7,0.9,0.9,1.5C145,58.1,145.1,58.7,145.1,59.4z M143.6,59.4c0-0.5-0.1-1-0.2-1.4c-0.1-0.4-0.3-0.8-0.6-1.1
			c-0.3-0.3-0.6-0.5-1-0.7S141,56,140.5,56c-0.5,0-0.9,0.1-1.3,0.2c-0.4,0.2-0.7,0.4-1,0.7c-0.3,0.3-0.5,0.6-0.6,1.1
			s-0.2,0.9-0.2,1.4c0,0.5,0.1,1,0.2,1.4c0.1,0.4,0.4,0.8,0.6,1.1c0.3,0.3,0.6,0.5,1,0.7c0.4,0.2,0.8,0.2,1.3,0.2
			c0.5,0,0.9-0.1,1.3-0.2s0.7-0.4,1-0.7s0.5-0.6,0.6-1.1C143.5,60.4,143.6,60,143.6,59.4z"/>
		<path d="M148.2,56V59h3.6v1.2h-3.6V64h-1.5v-9.2h5.7V56H148.2z"/>
		<path d="M169.3,54.8l-2.9,9.2h-1.3l-2.2-6.6c0-0.1-0.1-0.2-0.1-0.2c0-0.1,0-0.2-0.1-0.3c0,0.1,0,0.2-0.1,0.3s0,0.2-0.1,0.2
			l-2.2,6.6h-1.3l-2.9-9.2h1.2c0.1,0,0.2,0,0.3,0.1c0.1,0.1,0.1,0.1,0.2,0.3l1.7,5.9c0,0.1,0.1,0.3,0.1,0.4c0,0.1,0.1,0.3,0.1,0.5
			c0-0.2,0.1-0.3,0.1-0.5s0.1-0.3,0.1-0.4l2-5.9c0-0.1,0.1-0.2,0.2-0.2s0.2-0.1,0.3-0.1h0.4c0.1,0,0.2,0,0.3,0.1
			c0.1,0.1,0.1,0.1,0.2,0.2l2,5.9c0,0.1,0.1,0.3,0.1,0.4c0,0.1,0.1,0.3,0.1,0.4c0-0.2,0.1-0.3,0.1-0.4c0-0.1,0.1-0.3,0.1-0.4
			l1.7-5.9c0-0.1,0.1-0.2,0.2-0.2c0.1-0.1,0.2-0.1,0.3-0.1H169.3z"/>
		<path d="M179,56.4c0,0.1-0.1,0.1-0.1,0.2c-0.1,0-0.1,0.1-0.2,0.1c-0.1,0-0.2,0-0.3-0.1c-0.1-0.1-0.2-0.1-0.4-0.2
			c-0.1-0.1-0.3-0.2-0.5-0.2c-0.2-0.1-0.4-0.1-0.7-0.1c-0.3,0-0.5,0-0.7,0.1c-0.2,0.1-0.4,0.2-0.5,0.3s-0.2,0.3-0.3,0.4
			c-0.1,0.2-0.1,0.3-0.1,0.5c0,0.2,0.1,0.4,0.2,0.6c0.1,0.2,0.3,0.3,0.5,0.4c0.2,0.1,0.4,0.2,0.7,0.3c0.3,0.1,0.5,0.2,0.8,0.3
			c0.3,0.1,0.5,0.2,0.8,0.3c0.3,0.1,0.5,0.3,0.7,0.5s0.4,0.4,0.5,0.7c0.1,0.3,0.2,0.6,0.2,1c0,0.4-0.1,0.8-0.2,1.1
			c-0.1,0.4-0.3,0.7-0.6,0.9s-0.6,0.5-1,0.6c-0.4,0.2-0.8,0.2-1.3,0.2c-0.3,0-0.6,0-0.9-0.1c-0.3-0.1-0.5-0.1-0.8-0.2
			c-0.3-0.1-0.5-0.2-0.7-0.4c-0.2-0.1-0.4-0.3-0.6-0.5l0.4-0.7c0-0.1,0.1-0.1,0.1-0.1s0.1-0.1,0.2-0.1c0.1,0,0.2,0,0.3,0.1
			c0.1,0.1,0.3,0.2,0.4,0.3s0.4,0.2,0.6,0.3c0.2,0.1,0.5,0.1,0.9,0.1c0.5,0,1-0.1,1.3-0.4c0.3-0.3,0.4-0.6,0.4-1.1
			c0-0.3-0.1-0.5-0.2-0.6c-0.1-0.2-0.3-0.3-0.5-0.4c-0.2-0.1-0.4-0.2-0.7-0.3c-0.3-0.1-0.5-0.2-0.8-0.2c-0.3-0.1-0.5-0.2-0.8-0.3
			s-0.5-0.3-0.7-0.5c-0.2-0.2-0.4-0.4-0.5-0.7s-0.2-0.6-0.2-1c0-0.3,0.1-0.7,0.2-1c0.1-0.3,0.3-0.6,0.6-0.8c0.2-0.2,0.6-0.4,0.9-0.6
			c0.4-0.1,0.8-0.2,1.2-0.2c0.5,0,1,0.1,1.5,0.2c0.4,0.2,0.8,0.4,1.1,0.7L179,56.4z"/>
		<path d="M187.6,62c0.1,0,0.2,0,0.2,0.1l0.6,0.6c-0.4,0.5-0.8,0.8-1.4,1c-0.5,0.2-1.2,0.4-2,0.4c-0.7,0-1.3-0.1-1.8-0.3
			c-0.5-0.2-1-0.6-1.4-1c-0.4-0.4-0.7-0.9-0.9-1.5s-0.3-1.2-0.3-1.9s0.1-1.3,0.3-1.9c0.2-0.6,0.5-1.1,0.9-1.5c0.4-0.4,0.9-0.7,1.4-1
			c0.6-0.2,1.2-0.3,1.8-0.3c0.7,0,1.2,0.1,1.8,0.3c0.5,0.2,0.9,0.5,1.3,0.9l-0.5,0.7c0,0-0.1,0.1-0.1,0.1s-0.1,0.1-0.2,0.1
			c-0.1,0-0.2,0-0.3-0.1s-0.2-0.2-0.4-0.3c-0.2-0.1-0.4-0.2-0.6-0.3s-0.6-0.1-0.9-0.1c-0.4,0-0.8,0.1-1.2,0.2
			c-0.4,0.2-0.7,0.4-0.9,0.7c-0.3,0.3-0.5,0.6-0.6,1.1c-0.1,0.4-0.2,0.9-0.2,1.4c0,0.5,0.1,1,0.2,1.4c0.2,0.4,0.4,0.8,0.6,1.1
			c0.3,0.3,0.6,0.5,0.9,0.7c0.4,0.2,0.8,0.2,1.2,0.2c0.3,0,0.5,0,0.7,0c0.2,0,0.4-0.1,0.6-0.1c0.2-0.1,0.3-0.1,0.5-0.2
			c0.2-0.1,0.3-0.2,0.4-0.3C187.4,62,187.5,62,187.6,62z"/>
		<path d="M198.1,59.4c0,0.7-0.1,1.3-0.3,1.9c-0.2,0.6-0.5,1.1-0.9,1.5c-0.4,0.4-0.9,0.7-1.4,1s-1.2,0.4-1.9,0.4
			c-0.7,0-1.3-0.1-1.9-0.4s-1-0.6-1.5-1c-0.4-0.4-0.7-0.9-0.9-1.5c-0.2-0.6-0.3-1.2-0.3-1.9c0-0.7,0.1-1.3,0.3-1.9
			c0.2-0.6,0.5-1.1,0.9-1.5s0.9-0.7,1.5-1c0.6-0.2,1.2-0.4,1.9-0.4c0.7,0,1.3,0.1,1.9,0.4c0.6,0.2,1,0.6,1.4,1
			c0.4,0.4,0.7,0.9,0.9,1.5C198,58.1,198.1,58.7,198.1,59.4z M196.5,59.4c0-0.5-0.1-1-0.2-1.4c-0.1-0.4-0.3-0.8-0.6-1.1
			c-0.3-0.3-0.6-0.5-1-0.7S194,56,193.5,56c-0.5,0-0.9,0.1-1.3,0.2c-0.4,0.2-0.7,0.4-1,0.7c-0.3,0.3-0.5,0.6-0.6,1.1
			s-0.2,0.9-0.2,1.4c0,0.5,0.1,1,0.2,1.4c0.1,0.4,0.4,0.8,0.6,1.1c0.3,0.3,0.6,0.5,1,0.7c0.4,0.2,0.8,0.2,1.3,0.2
			c0.5,0,0.9-0.1,1.3-0.2s0.7-0.4,1-0.7s0.5-0.6,0.6-1.1C196.5,60.4,196.5,60,196.5,59.4z"/>
		<path d="M207.3,54.8V64h-0.8c-0.1,0-0.2,0-0.3-0.1s-0.2-0.1-0.2-0.2l-5-6.5c0,0.1,0,0.2,0,0.4c0,0.1,0,0.2,0,0.3v6h-1.3v-9.2h0.8
			c0.1,0,0.1,0,0.2,0c0,0,0.1,0,0.1,0s0.1,0,0.1,0.1c0,0,0.1,0.1,0.1,0.1l5,6.5c0-0.1,0-0.3,0-0.4s0-0.2,0-0.4v-6H207.3z"/>
		<path d="M214.3,56.4c0,0.1-0.1,0.1-0.1,0.2c-0.1,0-0.1,0.1-0.2,0.1c-0.1,0-0.2,0-0.3-0.1c-0.1-0.1-0.2-0.1-0.4-0.2
			c-0.1-0.1-0.3-0.2-0.5-0.2c-0.2-0.1-0.4-0.1-0.7-0.1c-0.3,0-0.5,0-0.7,0.1c-0.2,0.1-0.4,0.2-0.5,0.3s-0.2,0.3-0.3,0.4
			c-0.1,0.2-0.1,0.3-0.1,0.5c0,0.2,0.1,0.4,0.2,0.6c0.1,0.2,0.3,0.3,0.5,0.4c0.2,0.1,0.4,0.2,0.7,0.3c0.3,0.1,0.5,0.2,0.8,0.3
			c0.3,0.1,0.5,0.2,0.8,0.3c0.3,0.1,0.5,0.3,0.7,0.5s0.4,0.4,0.5,0.7c0.1,0.3,0.2,0.6,0.2,1c0,0.4-0.1,0.8-0.2,1.1
			c-0.1,0.4-0.3,0.7-0.6,0.9s-0.6,0.5-1,0.6c-0.4,0.2-0.8,0.2-1.3,0.2c-0.3,0-0.6,0-0.9-0.1c-0.3-0.1-0.5-0.1-0.8-0.2
			c-0.3-0.1-0.5-0.2-0.7-0.4c-0.2-0.1-0.4-0.3-0.6-0.5l0.4-0.7c0-0.1,0.1-0.1,0.1-0.1s0.1-0.1,0.2-0.1c0.1,0,0.2,0,0.3,0.1
			c0.1,0.1,0.3,0.2,0.4,0.3s0.4,0.2,0.6,0.3c0.2,0.1,0.5,0.1,0.9,0.1c0.5,0,1-0.1,1.3-0.4c0.3-0.3,0.4-0.6,0.4-1.1
			c0-0.3-0.1-0.5-0.2-0.6c-0.1-0.2-0.3-0.3-0.5-0.4c-0.2-0.1-0.4-0.2-0.7-0.3c-0.3-0.1-0.5-0.2-0.8-0.2c-0.3-0.1-0.5-0.2-0.8-0.3
			s-0.5-0.3-0.7-0.5c-0.2-0.2-0.4-0.4-0.5-0.7s-0.2-0.6-0.2-1c0-0.3,0.1-0.7,0.2-1c0.1-0.3,0.3-0.6,0.6-0.8c0.2-0.2,0.6-0.4,0.9-0.6
			c0.4-0.1,0.8-0.2,1.2-0.2c0.5,0,1,0.1,1.5,0.2c0.4,0.2,0.8,0.4,1.1,0.7L214.3,56.4z"/>
		<path d="M227.7,54.8V64H227c-0.1,0-0.2,0-0.3-0.1s-0.2-0.1-0.2-0.2l-5-6.5c0,0.1,0,0.2,0,0.4c0,0.1,0,0.2,0,0.3v6h-1.3v-9.2h0.8
			c0.1,0,0.1,0,0.2,0c0,0,0.1,0,0.1,0s0.1,0,0.1,0.1c0,0,0.1,0.1,0.1,0.1l5,6.5c0-0.1,0-0.3,0-0.4s0-0.2,0-0.4v-6H227.7z"/>
		<path d="M229.7,59.1h5.1v1h-5.1V59.1z"/>
		<path d="M246.6,54.8V64h-1.3v-6.3c0-0.1,0-0.2,0-0.3s0-0.2,0-0.4l-3,5.5c-0.1,0.2-0.3,0.3-0.5,0.3h-0.2c-0.2,0-0.4-0.1-0.5-0.3
			l-3-5.5c0,0.1,0,0.2,0,0.4c0,0.1,0,0.2,0,0.3V64h-1.3v-9.2h1.1c0.1,0,0.2,0,0.3,0s0.1,0.1,0.2,0.2l2.9,5.3
			c0.1,0.1,0.1,0.3,0.2,0.4c0.1,0.1,0.1,0.3,0.2,0.4c0.1-0.1,0.1-0.3,0.2-0.4c0.1-0.1,0.1-0.3,0.2-0.4l2.9-5.3
			c0.1-0.1,0.1-0.2,0.2-0.2s0.2,0,0.3,0H246.6z"/>
		<path d="M256.6,64h-1.2c-0.1,0-0.2,0-0.3-0.1s-0.1-0.1-0.2-0.2l-0.8-2h-4l-0.8,2c0,0.1-0.1,0.2-0.2,0.2s-0.2,0.1-0.3,0.1h-1.2
			l3.6-9.2h1.5L256.6,64z M253.8,60.6l-1.3-3.4c-0.1-0.3-0.2-0.6-0.3-1c0,0.2-0.1,0.4-0.2,0.6s-0.1,0.3-0.2,0.4l-1.3,3.3H253.8z"/>
		<path d="M265.8,59.4c0,0.7-0.1,1.3-0.3,1.9c-0.2,0.6-0.5,1-0.9,1.5c-0.4,0.4-0.9,0.7-1.4,0.9s-1.2,0.3-1.9,0.3h-3.5v-9.2h3.5
			c0.7,0,1.3,0.1,1.9,0.3s1,0.5,1.4,0.9c0.4,0.4,0.7,0.9,0.9,1.5C265.7,58.1,265.8,58.7,265.8,59.4z M264.2,59.4
			c0-0.5-0.1-1-0.2-1.4c-0.1-0.4-0.3-0.8-0.6-1.1s-0.6-0.5-1-0.7c-0.4-0.2-0.8-0.2-1.3-0.2h-2v6.8h2c0.5,0,0.9-0.1,1.3-0.2
			c0.4-0.2,0.7-0.4,1-0.7s0.5-0.6,0.6-1.1C264.2,60.4,264.2,60,264.2,59.4z"/>
		<path d="M275.9,56.4c0,0.1-0.1,0.1-0.1,0.2c-0.1,0-0.1,0.1-0.2,0.1c-0.1,0-0.2,0-0.3-0.1c-0.1-0.1-0.2-0.1-0.4-0.2
			c-0.1-0.1-0.3-0.2-0.5-0.2c-0.2-0.1-0.4-0.1-0.7-0.1c-0.3,0-0.5,0-0.7,0.1c-0.2,0.1-0.4,0.2-0.5,0.3s-0.2,0.3-0.3,0.4
			c-0.1,0.2-0.1,0.3-0.1,0.5c0,0.2,0.1,0.4,0.2,0.6c0.1,0.2,0.3,0.3,0.5,0.4c0.2,0.1,0.4,0.2,0.7,0.3c0.3,0.1,0.5,0.2,0.8,0.3
			c0.3,0.1,0.5,0.2,0.8,0.3c0.3,0.1,0.5,0.3,0.7,0.5s0.4,0.4,0.5,0.7c0.1,0.3,0.2,0.6,0.2,1c0,0.4-0.1,0.8-0.2,1.1
			c-0.1,0.4-0.3,0.7-0.6,0.9s-0.6,0.5-1,0.6c-0.4,0.2-0.8,0.2-1.3,0.2c-0.3,0-0.6,0-0.9-0.1c-0.3-0.1-0.5-0.1-0.8-0.2
			c-0.3-0.1-0.5-0.2-0.7-0.4c-0.2-0.1-0.4-0.3-0.6-0.5l0.4-0.7c0-0.1,0.1-0.1,0.1-0.1s0.1-0.1,0.2-0.1c0.1,0,0.2,0,0.3,0.1
			c0.1,0.1,0.3,0.2,0.4,0.3s0.4,0.2,0.6,0.3c0.2,0.1,0.5,0.1,0.9,0.1c0.5,0,1-0.1,1.3-0.4c0.3-0.3,0.4-0.6,0.4-1.1
			c0-0.3-0.1-0.5-0.2-0.6c-0.1-0.2-0.3-0.3-0.5-0.4c-0.2-0.1-0.4-0.2-0.7-0.3c-0.3-0.1-0.5-0.2-0.8-0.2c-0.3-0.1-0.5-0.2-0.8-0.3
			s-0.5-0.3-0.7-0.5c-0.2-0.2-0.4-0.4-0.5-0.7s-0.2-0.6-0.2-1c0-0.3,0.1-0.7,0.2-1c0.1-0.3,0.3-0.6,0.6-0.8c0.2-0.2,0.6-0.4,0.9-0.6
			c0.4-0.1,0.8-0.2,1.2-0.2c0.5,0,1,0.1,1.5,0.2c0.4,0.2,0.8,0.4,1.1,0.7L275.9,56.4z"/>
		<path d="M286.7,59.4c0,0.7-0.1,1.3-0.3,1.9c-0.2,0.6-0.5,1.1-0.9,1.5c-0.4,0.4-0.9,0.7-1.4,1s-1.2,0.4-1.9,0.4
			c-0.7,0-1.3-0.1-1.9-0.4s-1-0.6-1.5-1c-0.4-0.4-0.7-0.9-0.9-1.5c-0.2-0.6-0.3-1.2-0.3-1.9c0-0.7,0.1-1.3,0.3-1.9
			c0.2-0.6,0.5-1.1,0.9-1.5s0.9-0.7,1.5-1c0.6-0.2,1.2-0.4,1.9-0.4c0.7,0,1.3,0.1,1.9,0.4c0.6,0.2,1,0.6,1.4,1
			c0.4,0.4,0.7,0.9,0.9,1.5C286.6,58.1,286.7,58.7,286.7,59.4z M285.2,59.4c0-0.5-0.1-1-0.2-1.4c-0.1-0.4-0.3-0.8-0.6-1.1
			c-0.3-0.3-0.6-0.5-1-0.7s-0.8-0.2-1.3-0.2c-0.5,0-0.9,0.1-1.3,0.2c-0.4,0.2-0.7,0.4-1,0.7c-0.3,0.3-0.5,0.6-0.6,1.1
			s-0.2,0.9-0.2,1.4c0,0.5,0.1,1,0.2,1.4c0.1,0.4,0.4,0.8,0.6,1.1c0.3,0.3,0.6,0.5,1,0.7c0.4,0.2,0.8,0.2,1.3,0.2
			c0.5,0,0.9-0.1,1.3-0.2s0.7-0.4,1-0.7s0.5-0.6,0.6-1.1C285.1,60.4,285.2,60,285.2,59.4z"/>
		<path d="M296,54.8V64h-0.8c-0.1,0-0.2,0-0.3-0.1s-0.2-0.1-0.2-0.2l-5-6.5c0,0.1,0,0.2,0,0.4c0,0.1,0,0.2,0,0.3v6h-1.3v-9.2h0.8
			c0.1,0,0.1,0,0.2,0c0,0,0.1,0,0.1,0s0.1,0,0.1,0.1c0,0,0.1,0.1,0.1,0.1l5,6.5c0-0.1,0-0.3,0-0.4s0-0.2,0-0.4v-6H296z"/>
		<path d="M79.8,64h-0.2h-0.2h-0.2H79h-0.2h-0.2h-0.2h-0.2v-0.6v-0.6v-0.6v-0.6v-0.6v-0.6V60v-0.6v-0.6v-0.6v-0.6v-0.6v-0.6V56v-0.6
			v-0.6h0.2h0.2h0.2H79h0.2h0.2h0.2h0.2v0.6V56v0.6v0.6v0.6v0.6v0.6v0.6V60v0.6v0.6v0.6v0.6v0.6v0.6V64z"/>
	</g>
	<g>
		<path class="st1" d="M67.9,31.8c-0.1,0.1-0.2,0.2-0.3,0.3c-0.1,0.1-0.2,0.1-0.3,0.1c-0.1,0-0.3-0.1-0.5-0.2s-0.4-0.3-0.7-0.4
			s-0.6-0.3-1-0.4c-0.4-0.1-0.8-0.2-1.4-0.2c-0.5,0-0.9,0.1-1.3,0.2c-0.4,0.1-0.7,0.3-1,0.5c-0.3,0.2-0.5,0.5-0.6,0.8
			c-0.1,0.3-0.2,0.6-0.2,1c0,0.5,0.1,0.8,0.4,1.2c0.2,0.3,0.5,0.6,0.9,0.8s0.8,0.4,1.3,0.6c0.5,0.2,1,0.3,1.5,0.5
			c0.5,0.2,1,0.4,1.5,0.6c0.5,0.2,0.9,0.5,1.3,0.8c0.4,0.3,0.7,0.8,0.9,1.2c0.2,0.5,0.4,1.1,0.4,1.8c0,0.8-0.1,1.5-0.4,2.1
			c-0.3,0.7-0.6,1.2-1.1,1.7s-1.1,0.9-1.8,1.2c-0.7,0.3-1.5,0.4-2.5,0.4c-0.6,0-1.1-0.1-1.6-0.2c-0.5-0.1-1-0.3-1.5-0.5
			c-0.5-0.2-0.9-0.4-1.3-0.7c-0.4-0.3-0.8-0.6-1.1-0.9l0.7-1.2c0.1-0.1,0.2-0.2,0.3-0.2c0.1-0.1,0.2-0.1,0.3-0.1
			c0.2,0,0.4,0.1,0.6,0.3c0.2,0.2,0.5,0.4,0.8,0.6c0.3,0.2,0.7,0.4,1.2,0.6c0.5,0.2,1,0.3,1.6,0.3c0.5,0,1-0.1,1.4-0.2
			c0.4-0.1,0.8-0.3,1.1-0.6c0.3-0.3,0.5-0.6,0.7-0.9c0.2-0.4,0.2-0.8,0.2-1.2c0-0.5-0.1-0.9-0.3-1.2c-0.2-0.3-0.5-0.6-0.9-0.8
			c-0.4-0.2-0.8-0.4-1.3-0.6s-1-0.3-1.5-0.5c-0.5-0.2-1-0.4-1.5-0.6s-0.9-0.5-1.3-0.8c-0.4-0.3-0.7-0.8-0.9-1.3
			c-0.2-0.5-0.3-1.2-0.3-1.9c0-0.6,0.1-1.2,0.4-1.8c0.2-0.6,0.6-1.1,1-1.5c0.5-0.4,1-0.8,1.7-1.1c0.7-0.3,1.4-0.4,2.3-0.4
			c1,0,1.9,0.2,2.7,0.5s1.5,0.8,2.1,1.3L67.9,31.8z"/>
		<path class="st1" d="M80,36.3c-0.1,0.1-0.1,0.2-0.2,0.2c-0.1,0.1-0.2,0.1-0.3,0.1s-0.3,0-0.4-0.1c-0.1-0.1-0.3-0.2-0.5-0.3
			c-0.2-0.1-0.5-0.2-0.8-0.3c-0.3-0.1-0.7-0.1-1.1-0.1c-0.6,0-1.1,0.1-1.5,0.3s-0.8,0.5-1.1,0.9c-0.3,0.4-0.5,0.9-0.7,1.4
			c-0.2,0.6-0.2,1.2-0.2,1.9c0,0.7,0.1,1.3,0.2,1.9c0.2,0.6,0.4,1,0.7,1.4c0.3,0.4,0.7,0.7,1.1,0.9c0.4,0.2,0.9,0.3,1.4,0.3
			c0.5,0,0.9-0.1,1.2-0.2s0.6-0.3,0.8-0.4c0.2-0.1,0.4-0.3,0.5-0.4c0.1-0.1,0.3-0.2,0.4-0.2c0.2,0,0.3,0.1,0.4,0.2l0.7,0.9
			c-0.3,0.3-0.6,0.6-0.9,0.9c-0.3,0.2-0.7,0.4-1.1,0.6c-0.4,0.2-0.8,0.3-1.2,0.3c-0.4,0.1-0.9,0.1-1.3,0.1c-0.8,0-1.5-0.1-2.1-0.4
			s-1.2-0.7-1.7-1.2c-0.5-0.5-0.9-1.2-1.1-2c-0.3-0.8-0.4-1.7-0.4-2.7c0-0.9,0.1-1.7,0.4-2.5c0.3-0.8,0.6-1.4,1.1-2
			c0.5-0.6,1.1-1,1.8-1.3c0.7-0.3,1.5-0.5,2.5-0.5c0.9,0,1.6,0.1,2.3,0.4c0.7,0.3,1.3,0.7,1.8,1.2L80,36.3z"/>
		<path class="st1" d="M85.1,35.6c0.5-0.5,1.1-0.9,1.7-1.3c0.6-0.3,1.3-0.5,2.1-0.5c0.7,0,1.3,0.1,1.8,0.3c0.5,0.2,0.9,0.5,1.3,0.9
			c0.3,0.4,0.6,0.9,0.8,1.5s0.3,1.2,0.3,1.9v7.8h-2.4v-7.8c0-0.9-0.2-1.5-0.6-2s-1-0.7-1.8-0.7c-0.6,0-1.2,0.1-1.7,0.4
			c-0.5,0.3-1,0.7-1.5,1.2v8.9h-2.3V28.5h2.3V35.6z"/>
		<path class="st1" d="M101.3,33.8c0.9,0,1.7,0.1,2.4,0.4s1.3,0.7,1.8,1.3c0.5,0.5,0.9,1.2,1.2,2s0.4,1.6,0.4,2.6s-0.1,1.8-0.4,2.6
			s-0.7,1.4-1.2,2c-0.5,0.5-1.1,1-1.8,1.3s-1.5,0.4-2.4,0.4c-0.9,0-1.7-0.1-2.4-0.4s-1.3-0.7-1.9-1.3c-0.5-0.5-0.9-1.2-1.2-2
			c-0.3-0.8-0.4-1.6-0.4-2.6s0.1-1.8,0.4-2.6c0.3-0.8,0.7-1.4,1.2-2c0.5-0.5,1.1-1,1.9-1.3S100.4,33.8,101.3,33.8z M101.3,44.5
			c1.2,0,2-0.4,2.6-1.2s0.9-1.9,0.9-3.3c0-1.4-0.3-2.5-0.9-3.3c-0.6-0.8-1.4-1.2-2.6-1.2c-1.2,0-2,0.4-2.6,1.2
			c-0.6,0.8-0.9,1.9-0.9,3.3c0,1.4,0.3,2.5,0.9,3.3C99.2,44.2,100.1,44.5,101.3,44.5z"/>
		<path class="st1" d="M114.8,33.8c0.9,0,1.7,0.1,2.4,0.4s1.3,0.7,1.8,1.3c0.5,0.5,0.9,1.2,1.2,2s0.4,1.6,0.4,2.6s-0.1,1.8-0.4,2.6
			s-0.7,1.4-1.2,2c-0.5,0.5-1.1,1-1.8,1.3s-1.5,0.4-2.4,0.4c-0.9,0-1.7-0.1-2.4-0.4s-1.3-0.7-1.9-1.3c-0.5-0.5-0.9-1.2-1.2-2
			c-0.3-0.8-0.4-1.6-0.4-2.6s0.1-1.8,0.4-2.6c0.3-0.8,0.7-1.4,1.2-2c0.5-0.5,1.1-1,1.9-1.3S113.9,33.8,114.8,33.8z M114.8,44.5
			c1.2,0,2-0.4,2.6-1.2s0.9-1.9,0.9-3.3c0-1.4-0.3-2.5-0.9-3.3c-0.6-0.8-1.4-1.2-2.6-1.2c-1.2,0-2,0.4-2.6,1.2
			c-0.6,0.8-0.9,1.9-0.9,3.3c0,1.4,0.3,2.5,0.9,3.3C112.8,44.2,113.7,44.5,114.8,44.5z"/>
		<path class="st1" d="M125.6,28.5v17.7h-2.4V28.5H125.6z"/>
		<path class="st1" d="M140.2,33.8c0.9,0,1.7,0.1,2.4,0.4s1.3,0.7,1.8,1.3c0.5,0.5,0.9,1.2,1.2,2s0.4,1.6,0.4,2.6s-0.1,1.8-0.4,2.6
			s-0.7,1.4-1.2,2c-0.5,0.5-1.1,1-1.8,1.3s-1.5,0.4-2.4,0.4c-0.9,0-1.7-0.1-2.4-0.4s-1.3-0.7-1.9-1.3c-0.5-0.5-0.9-1.2-1.2-2
			c-0.3-0.8-0.4-1.6-0.4-2.6s0.1-1.8,0.4-2.6c0.3-0.8,0.7-1.4,1.2-2c0.5-0.5,1.1-1,1.9-1.3S139.3,33.8,140.2,33.8z M140.2,44.5
			c1.2,0,2-0.4,2.6-1.2s0.9-1.9,0.9-3.3c0-1.4-0.3-2.5-0.9-3.3c-0.6-0.8-1.4-1.2-2.6-1.2c-1.2,0-2,0.4-2.6,1.2
			c-0.6,0.8-0.9,1.9-0.9,3.3c0,1.4,0.3,2.5,0.9,3.3C138.1,44.2,139,44.5,140.2,44.5z"/>
		<path class="st1" d="M148.9,46.2V35.9l-1.3-0.2c-0.2,0-0.3-0.1-0.4-0.2c-0.1-0.1-0.2-0.2-0.2-0.4v-1h1.9v-1.1
			c0-0.7,0.1-1.3,0.3-1.9c0.2-0.5,0.5-1,0.9-1.4c0.4-0.4,0.8-0.7,1.3-0.9c0.5-0.2,1.1-0.3,1.8-0.3c0.6,0,1.1,0.1,1.5,0.2l0,1.2
			c0,0.1,0,0.2-0.1,0.2c-0.1,0.1-0.1,0.1-0.2,0.1s-0.2,0-0.3,0c-0.1,0-0.3,0-0.4,0c-0.4,0-0.7,0-1,0.1s-0.5,0.2-0.8,0.4
			s-0.4,0.5-0.5,0.8c-0.1,0.3-0.2,0.8-0.2,1.3v1h3.4v1.7h-3.3v10.3H148.9z"/>
		<path class="st1" d="M173.8,44.1l0,2.1h-10.7V29h10.7V31h-8.1v5.5h6.5v2h-6.5v5.6H173.8z"/>
		<path class="st1" d="M186.3,28.5v17.7h-1.4c-0.3,0-0.5-0.2-0.6-0.5l-0.2-1.4c-0.5,0.6-1.1,1.1-1.8,1.5s-1.4,0.6-2.3,0.6
			c-0.7,0-1.3-0.1-1.9-0.4c-0.6-0.3-1-0.7-1.4-1.2s-0.7-1.2-0.9-1.9c-0.2-0.8-0.3-1.7-0.3-2.7c0-0.9,0.1-1.7,0.4-2.5
			c0.2-0.8,0.6-1.4,1-2c0.5-0.6,1-1,1.7-1.3c0.6-0.3,1.4-0.5,2.2-0.5c0.7,0,1.4,0.1,1.9,0.4c0.5,0.2,1,0.6,1.4,1v-6.7H186.3z
			 M183.9,37c-0.4-0.5-0.8-0.9-1.2-1.1c-0.4-0.2-0.9-0.3-1.5-0.3c-1.1,0-1.9,0.4-2.5,1.2c-0.6,0.8-0.9,1.9-0.9,3.4
			c0,0.8,0.1,1.4,0.2,2c0.1,0.5,0.3,1,0.6,1.3s0.6,0.6,0.9,0.8c0.4,0.2,0.8,0.2,1.2,0.2c0.7,0,1.3-0.2,1.8-0.5s1-0.7,1.4-1.3V37z"/>
		<path class="st1" d="M199.6,34v12.2h-1.4c-0.3,0-0.5-0.2-0.6-0.5l-0.2-1.2c-0.3,0.3-0.5,0.5-0.8,0.8c-0.3,0.2-0.6,0.4-0.9,0.6
			c-0.3,0.2-0.7,0.3-1,0.4c-0.4,0.1-0.8,0.1-1.2,0.1c-0.7,0-1.3-0.1-1.8-0.3c-0.5-0.2-0.9-0.5-1.3-0.9c-0.3-0.4-0.6-0.9-0.8-1.5
			s-0.3-1.2-0.3-1.9V34h2.4v7.8c0,0.9,0.2,1.6,0.6,2c0.4,0.5,1,0.7,1.8,0.7c0.6,0,1.2-0.1,1.7-0.4c0.5-0.3,1-0.7,1.5-1.2V34H199.6z"
			/>
		<path class="st1" d="M211.3,36.3c-0.1,0.1-0.1,0.2-0.2,0.2c-0.1,0.1-0.2,0.1-0.3,0.1s-0.3,0-0.4-0.1c-0.1-0.1-0.3-0.2-0.5-0.3
			c-0.2-0.1-0.5-0.2-0.8-0.3c-0.3-0.1-0.7-0.1-1.1-0.1c-0.6,0-1.1,0.1-1.5,0.3s-0.8,0.5-1.1,0.9c-0.3,0.4-0.5,0.9-0.7,1.4
			c-0.2,0.6-0.2,1.2-0.2,1.9c0,0.7,0.1,1.3,0.2,1.9c0.2,0.6,0.4,1,0.7,1.4c0.3,0.4,0.7,0.7,1.1,0.9c0.4,0.2,0.9,0.3,1.4,0.3
			c0.5,0,0.9-0.1,1.2-0.2s0.6-0.3,0.8-0.4c0.2-0.1,0.4-0.3,0.5-0.4c0.1-0.1,0.3-0.2,0.4-0.2c0.2,0,0.3,0.1,0.4,0.2l0.7,0.9
			c-0.3,0.3-0.6,0.6-0.9,0.9c-0.3,0.2-0.7,0.4-1.1,0.6c-0.4,0.2-0.8,0.3-1.2,0.3c-0.4,0.1-0.9,0.1-1.3,0.1c-0.8,0-1.5-0.1-2.1-0.4
			s-1.2-0.7-1.7-1.2c-0.5-0.5-0.9-1.2-1.1-2c-0.3-0.8-0.4-1.7-0.4-2.7c0-0.9,0.1-1.7,0.4-2.5c0.3-0.8,0.6-1.4,1.1-2
			c0.5-0.6,1.1-1,1.8-1.3c0.7-0.3,1.5-0.5,2.5-0.5c0.9,0,1.6,0.1,2.3,0.4c0.7,0.3,1.3,0.7,1.8,1.2L211.3,36.3z"/>
		<path class="st1" d="M214.1,35.7c0.7-0.6,1.4-1.1,2.2-1.5s1.7-0.5,2.6-0.5c0.7,0,1.3,0.1,1.8,0.3c0.5,0.2,1,0.5,1.4,1
			c0.4,0.4,0.6,0.9,0.8,1.5c0.2,0.6,0.3,1.2,0.3,1.9v7.8h-1c-0.2,0-0.4,0-0.5-0.1c-0.1-0.1-0.2-0.2-0.3-0.4l-0.3-1.1
			c-0.3,0.3-0.6,0.5-0.9,0.8c-0.3,0.2-0.6,0.4-1,0.6c-0.3,0.2-0.7,0.3-1.1,0.4c-0.4,0.1-0.8,0.1-1.2,0.1c-0.5,0-0.9-0.1-1.4-0.2
			c-0.4-0.1-0.8-0.3-1.1-0.6c-0.3-0.3-0.6-0.6-0.7-1c-0.2-0.4-0.3-0.9-0.3-1.4c0-0.5,0.1-0.9,0.4-1.4c0.3-0.4,0.7-0.8,1.3-1.2
			c0.6-0.4,1.4-0.6,2.3-0.9c0.9-0.2,2.1-0.4,3.5-0.4v-0.9c0-0.9-0.2-1.6-0.6-2.1s-1-0.7-1.7-0.7c-0.5,0-0.9,0.1-1.3,0.2
			c-0.3,0.1-0.6,0.3-0.9,0.4c-0.3,0.2-0.5,0.3-0.7,0.4s-0.4,0.2-0.6,0.2c-0.2,0-0.3,0-0.4-0.1c-0.1-0.1-0.2-0.2-0.3-0.3L214.1,35.7z
			 M221,40.8c-1,0-1.8,0.1-2.4,0.2c-0.7,0.1-1.2,0.3-1.6,0.5s-0.7,0.4-0.9,0.7c-0.2,0.3-0.3,0.5-0.3,0.9c0,0.3,0,0.6,0.1,0.8
			c0.1,0.2,0.2,0.4,0.4,0.5c0.2,0.1,0.4,0.2,0.6,0.3c0.2,0.1,0.5,0.1,0.8,0.1c0.4,0,0.7,0,1-0.1c0.3-0.1,0.6-0.2,0.8-0.3
			c0.3-0.1,0.5-0.3,0.8-0.5c0.2-0.2,0.5-0.4,0.7-0.7V40.8z"/>
		<path class="st1" d="M229.9,46.4c-1,0-1.7-0.3-2.3-0.8c-0.5-0.6-0.8-1.3-0.8-2.4v-7.3h-1.4c-0.1,0-0.3,0-0.3-0.1s-0.1-0.2-0.1-0.4
			v-0.9l2-0.3l0.5-3.6c0-0.1,0.1-0.2,0.2-0.3c0.1-0.1,0.2-0.1,0.4-0.1h1.2v4.1h3.5v1.7h-3.5V43c0,0.5,0.1,0.8,0.4,1.1
			c0.2,0.2,0.5,0.4,0.9,0.4c0.2,0,0.4,0,0.6-0.1c0.2-0.1,0.3-0.1,0.4-0.2c0.1-0.1,0.2-0.1,0.3-0.2c0.1-0.1,0.2-0.1,0.2-0.1
			c0.1,0,0.1,0,0.2,0.1c0,0,0.1,0.1,0.1,0.2l0.7,1.1c-0.4,0.4-0.8,0.6-1.4,0.8C231,46.3,230.4,46.4,229.9,46.4z"/>
		<path class="st1" d="M237.5,30.2c0,0.2,0,0.4-0.1,0.6c-0.1,0.2-0.2,0.4-0.4,0.5c-0.1,0.1-0.3,0.3-0.5,0.3
			c-0.2,0.1-0.4,0.1-0.6,0.1c-0.2,0-0.4,0-0.6-0.1s-0.4-0.2-0.5-0.3c-0.1-0.1-0.3-0.3-0.3-0.5c-0.1-0.2-0.1-0.4-0.1-0.6
			c0-0.2,0-0.4,0.1-0.6c0.1-0.2,0.2-0.4,0.3-0.5c0.1-0.1,0.3-0.3,0.5-0.3s0.4-0.1,0.6-0.1c0.2,0,0.4,0,0.6,0.1
			c0.2,0.1,0.4,0.2,0.5,0.3s0.3,0.3,0.4,0.5C237.4,29.8,237.5,30,237.5,30.2z M237,34v12.2h-2.3V34H237z"/>
		<path class="st1" d="M245.4,33.8c0.9,0,1.7,0.1,2.4,0.4s1.3,0.7,1.8,1.3c0.5,0.5,0.9,1.2,1.2,2s0.4,1.6,0.4,2.6s-0.1,1.8-0.4,2.6
			s-0.7,1.4-1.2,2c-0.5,0.5-1.1,1-1.8,1.3s-1.5,0.4-2.4,0.4c-0.9,0-1.7-0.1-2.4-0.4s-1.3-0.7-1.9-1.3c-0.5-0.5-0.9-1.2-1.2-2
			c-0.3-0.8-0.4-1.6-0.4-2.6s0.1-1.8,0.4-2.6c0.3-0.8,0.7-1.4,1.2-2c0.5-0.5,1.1-1,1.9-1.3S244.5,33.8,245.4,33.8z M245.4,44.5
			c1.2,0,2-0.4,2.6-1.2s0.9-1.9,0.9-3.3c0-1.4-0.3-2.5-0.9-3.3c-0.6-0.8-1.4-1.2-2.6-1.2c-1.2,0-2,0.4-2.6,1.2
			c-0.6,0.8-0.9,1.9-0.9,3.3c0,1.4,0.3,2.5,0.9,3.3C243.4,44.2,244.2,44.5,245.4,44.5z"/>
		<path class="st1" d="M256,35.7c0.3-0.3,0.5-0.5,0.8-0.8c0.3-0.2,0.6-0.4,0.9-0.6c0.3-0.2,0.7-0.3,1-0.4c0.4-0.1,0.8-0.1,1.2-0.1
			c0.7,0,1.3,0.1,1.8,0.3c0.5,0.2,0.9,0.5,1.3,0.9c0.3,0.4,0.6,0.9,0.8,1.5s0.3,1.2,0.3,1.9v7.8h-2.4v-7.8c0-0.9-0.2-1.5-0.6-2
			s-1-0.7-1.8-0.7c-0.6,0-1.2,0.1-1.7,0.4c-0.5,0.3-1,0.7-1.5,1.2v8.9h-2.3V34h1.4c0.3,0,0.5,0.2,0.6,0.5L256,35.7z"/>
	</g>
</g>
</svg>
