<?xml version="1.0" encoding="utf-8"?>
<!-- Generator: Adobe Illustrator 23.1.0, SVG Export Plug-In . SVG Version: 6.00 Build 0)  -->
<svg version="1.1" id="Layer_1" xmlns="http://www.w3.org/2000/svg" xmlns:xlink="http://www.w3.org/1999/xlink" x="0px" y="0px"
	 viewBox="0 0 478.6 147.4" style="enable-background:new 0 0 478.6 147.4;" xml:space="preserve">
<style type="text/css">
	.st0{fill:#EA5753;}
	.st1{fill:#84818D;}
</style>
<g>
	<g>
		<path class="st0" d="M16.9,78.2c-4.6,3.1-5.5,8.6-2.4,13.6c3.5,4.9,19.2,13.7,25.6,7.3c5.7-5.7-10.6-17.2-18.9-34.6
			c-5.3-10.4,0-31.3,6.6-40.8C39.6,5.8,64-1.7,79.4,0.3c11.7,2,20.1,15.4,18.7,22.3c-3.8,17-32.2,34.4-43.2,26.6
			c-2-2-1.5-3.1,1.6-3.7c10.1-1.5,32.4-24.7,27.3-26.2c-12.6-2.9-55.7,9.3-52,30c0.7,13.9,27.1,26.4,28.6,39.7
			c0.6,11.2-14.5,25.6-23.8,28.6c-15.6,4.9-35-4.8-36.4-19.4c-0.9-11.2,9.9-22.2,15.2-23.1C18.7,74.7,18.9,76.1,16.9,78.2z"/>
		<path class="st0" d="M472.7,43.4c-2.2-0.2-2.7-0.4-5.7-0.4c5.3-9,8.2-14.1,9.5-15.7c2.4-3.8-6-7.9-12.5-5.5
			c-5,6.4-10.3,13.4-16.8,23.1l-6.8,1.3c-9.1,2.4-8.1,8.4-5.7,9c0.9,0.2,2.7,0.4,5.7,0.2c-4.9,7.7-9.4,15.6-12.4,22.7
			c-10.3,10.4-27.2,24.4-35.8,18.5c-4.9-3.5-4-9.7-2.4-14.8c1.3,2.2,7.3,6.8,11.7,6.2c13.6-0.9,23.1-18.7,23.6-25.8
			c0.5-8.2-12.3-18.9-20.3-17.8c-10.8,1.2-26.5,17.2-31.5,33.6c-6.7,6.7-16.7,15.6-24,16c-3.8,0.5-7.3-1.3-10.4-4
			c14.8-0.9,28.2-15,31.1-24.2c1.8-5.7-5.7-19.4-13-19.4c-4.9-0.2-13,4.2-22.5,14.5c6.4-12.5,13.4-23.4,19.4-33.5
			c2-3.1-9.5-7.7-11.5-6.2c-6,4.9-23.9,31.4-34.2,52.9l0,0c-10.2,11-29.5,28.5-39.3,23.7c-15.6-7.5,13.2-42.8,20.9-43.6
			c3.5-0.6-3.1,17-7.5,21.4c-2,1.3-1.5,2.8,2,2c8.8-2,19.4-12.8,18.9-20c-0.5-5.3-13-14.8-21.1-13.9c-10.6,1.2-26.2,17.2-32,33.5
			c-3.2,3.1-6.1,5.7-7.4,6.2c2.4-4.8,5.3-14.1,5.3-18.7c0.5-8.4-9.5-17.2-16.3-18.7c-9-1.5-16.5,5.7-19.6,9.7
			c-0.2,0.1-0.5,0.2-0.8,0.2c-0.7,0.2-1.6,0.4-2.6,0.8c0,0,0,0,0,0c-2,1.3-4.8,3.6-7.9,6.1c0,0,0,0,0,0c-7.3,6-15.7,13.3-14.8,10.7
			c0-0.5,7-11.9,11.9-19.8c2-4-3.5-9.5-8.4-10.4c-4.2,1.8-22.2,15.4-35.9,29.7c4.4-8.4,11.2-18.9,11.2-20.2c0-3.8-9.7-9.2-11.2-7.1
			c-1.2,1.2-9.9,13.4-17.6,26.3c-3.2,3.1-7.8,7.5-12.6,12.3c2.4-4.4,7.7-17,7.7-24.2c0-5.1-5.3-12.6-12.8-12.6
			c-7.1,0-13.4,6.8-22.7,19.2c5.3-10.3,7.5-13.9,10.8-20.7c1.5-3.3-9.5-7.7-11.2-5.5c-6.6,7.9-34.8,56.8-37.7,76.7
			c-0.9,4.4,4.2,13.2,13.2,14.6c2,0.5,3.5-1.1,2.8-3.1c-3.7-9.3,40.7-80.6,42.9-73.1c1.5,5-9,27.5-17.9,37.4
			c-5.7,1.5-7.7,1.3-8.3,4.8c0,6,6,11.9,9.7,12.8c3.7,1.3,8.6-2.6,13.6-8.4c3.9-3,8.2-6.7,12.2-10.4c-1.3,3.3-2.1,6.1-2.1,8
			c0,8.1,15,12.3,15.6,8.6c0.9-13.7,22-33.5,37.2-47.8c-3.5,4.9-5.7,8.2-7,12.1c-1.3,4.9,7.5,14.5,13.9,13.9c1.7,0,4.7-2.2,8.1-5.4
			c-0.8,3-1.3,6.1-1.5,9.2c-0.5,9.3,11.7,19.8,18,20.3c9,0.7,20.1-5.7,28-15.4c2.6-0.9,7.4-3.5,12.1-7.3c0,0.3,0,0.6,0,0.9
			c0,11,15.7,22.2,22.3,22.2c10.8,0.3,22.4-9.9,31.4-20.1c-0.6,2.4-0.9,4.5-0.8,6.2c0,4.8,6.2,12.6,11.4,13.2c3.3,0,3.5-2.8,3.5-3.5
			c1.6-5.1,4-10.3,6.8-15.2c4.4,8.8,15.2,17.8,22.9,17.8c8.2,0,18.6-9.6,26.7-18.8c2.1,10,15.4,19.3,21.5,19.3
			c10.2,0.3,21.3-8.4,30.4-17.6c0,0.7,0,1.3,0,1.9c0.5,8.1,9.3,15.4,14.7,15.9c9.1,0.7,31.1-28.2,33.3-31.9c6-8.1,3.9-13-2-7.1
			c-2.2,2.2-25.3,27.5-26.7,23.6c-2-4.6,7.9-23.8,17-40.3c6,0,11.9,0.2,16.3,0.7c1.3,0.2,1.8,0,2-0.9
			C479.1,52,475.8,43.4,472.7,43.4z M412.1,55.6c4.6,0-10.1,25.6-20,21.4C393.6,72.7,406.6,56.2,412.1,55.6z M203.8,97
			c-1.8-2.4-0.7-12.5,3.1-16.3c2.8,8.1,9.7,12.1,10.8,12.6C213.5,98.3,206.7,100.5,203.8,97z M223.4,85.8c-8.8-0.6-8.6-9-6.8-15.2
			c2.9-9.3,11-17.4,15.4-15C236,58.2,231.2,76,223.4,85.8z M332,78c11.9-14.8,24.2-24.7,25.3-22.2c0.5,3.9-12.8,20.5-24.7,22
			C332.4,77.8,332.2,78,332,78z"/>
		<path class="st0" d="M208.9,56.6c1-0.4,1.9-0.6,2.6-0.8c0,0,0,0,0,0C211.3,55.3,210.3,55.7,208.9,56.6z"/>
		<path class="st0" d="M204.3,59.3c-1.1,0.9-2.2,2.1-3.3,3.4c3.1-2.5,5.9-4.8,7.9-6.1C207.6,57.1,206,57.9,204.3,59.3z"/>
	</g>
</g>
<g>
	<g>
		<path class="st1" d="M102.3,147h-8.6v-19.1h8.7c1.9,0,3.6,0.4,4.9,1.2c1.4,0.8,2.4,1.9,3.1,3.3c0.7,1.4,1,3.1,1,4.9
			c0,2-0.4,3.7-1.2,5.1c-0.8,1.5-1.8,2.6-3.2,3.4C105.7,146.6,104.1,147,102.3,147z M102.2,131.9h-3.3V143h3.1c1.2,0,2.2-0.5,3-1.5
			c0.8-1,1.2-2.4,1.2-4.2c0-1.6-0.4-2.9-1.1-3.9C104.4,132.4,103.4,131.9,102.2,131.9z"/>
		<path class="st1" d="M127.8,147l7.2-19.1h5.1l7.1,18.9l-5,0.5l-1.4-4.1h-6.6l-1.3,3.8H127.8z M135.6,139.2h3.7l-1.9-5.2
			L135.6,139.2z"/>
		<path class="st1" d="M163,127.9h16.4l0.5,4h-6.1V147h-5.1v-15.1H163V127.9z"/>
		<path class="st1" d="M195.6,147l7.2-19.1h5.1l7.1,18.9l-5,0.5l-1.4-4.1h-6.6l-1.3,3.8H195.6z M203.5,139.2h3.7l-1.9-5.2
			L203.5,139.2z"/>
		<path class="st1" d="M252.9,145.8l1.7-3.9c0.5,0.3,1.2,0.6,2.1,0.8c0.9,0.3,1.7,0.4,2.4,0.4c0.7,0,1.4-0.2,1.8-0.5
			c0.5-0.3,0.7-0.7,0.7-1c0-0.2-0.2-0.5-0.5-0.7c-0.3-0.2-0.9-0.6-1.6-1l-0.9-0.5c-1.3-0.7-2.3-1.4-3-1.9c-0.7-0.5-1.4-1.1-1.9-1.9
			c-0.6-0.8-0.8-1.7-0.8-2.7c0-1.1,0.3-2,0.9-2.8c0.6-0.8,1.4-1.5,2.5-2c1.1-0.5,2.3-0.7,3.7-0.7c1,0,2,0.1,3,0.4
			c1,0.3,1.9,0.7,2.6,1.2l-1.5,3.5c-1-0.3-1.8-0.6-2.3-0.7c-0.5-0.1-1.1-0.2-1.8-0.2c-0.6,0-1,0.1-1.4,0.4c-0.3,0.3-0.5,0.6-0.5,1
			c0,0.3,0.1,0.5,0.4,0.7c0.3,0.2,0.8,0.5,1.5,0.9l1,0.6c1.2,0.7,2.2,1.3,3,1.9c0.8,0.6,1.5,1.2,2,2c0.6,0.8,0.8,1.7,0.8,2.6
			c0,1.1-0.3,2.1-0.9,2.9s-1.5,1.5-2.7,2c-1.2,0.5-2.5,0.7-4,0.7c-1,0-2.1-0.2-3.3-0.5C254.6,146.6,253.6,146.3,252.9,145.8z"/>
		<path class="st1" d="M294.1,139.5v7.5H289v-7.5l-6.1-10.6l4.9-1.4l3.7,7.3l4-6.9h5.3L294.1,139.5z"/>
		<path class="st1" d="M317.1,145.8l1.7-3.9c0.5,0.3,1.2,0.6,2.1,0.8c0.9,0.3,1.7,0.4,2.4,0.4c0.7,0,1.4-0.2,1.8-0.5
			c0.5-0.3,0.7-0.7,0.7-1c0-0.2-0.2-0.5-0.5-0.7c-0.3-0.2-0.9-0.6-1.6-1l-0.9-0.5c-1.3-0.7-2.3-1.4-3-1.9c-0.7-0.5-1.4-1.1-1.9-1.9
			c-0.6-0.8-0.8-1.7-0.8-2.7c0-1.1,0.3-2,0.9-2.8c0.6-0.8,1.4-1.5,2.5-2c1.1-0.5,2.3-0.7,3.7-0.7c1,0,2,0.1,3,0.4
			c1,0.3,1.9,0.7,2.6,1.2l-1.5,3.5c-1-0.3-1.8-0.6-2.3-0.7c-0.5-0.1-1.1-0.2-1.8-0.2c-0.6,0-1,0.1-1.4,0.4c-0.3,0.3-0.5,0.6-0.5,1
			c0,0.3,0.1,0.5,0.4,0.7c0.3,0.2,0.8,0.5,1.5,0.9l1,0.6c1.2,0.7,2.2,1.3,3,1.9c0.8,0.6,1.5,1.2,2,2c0.6,0.8,0.8,1.7,0.8,2.6
			c0,1.1-0.3,2.1-0.9,2.9s-1.5,1.5-2.7,2c-1.2,0.5-2.5,0.7-4,0.7c-1,0-2.1-0.2-3.3-0.5C318.8,146.6,317.9,146.3,317.1,145.8z"/>
		<path class="st1" d="M347.1,127.9h16.4l0.5,4h-6.1V147h-5.1v-15.1h-5.6V127.9z"/>
		<path class="st1" d="M395.2,143l0.5,4h-14v-19.1h12.7l0.5,4h-8.1v3.5h5.9l0.5,4h-6.4v3.6H395.2z"/>
		<path class="st1" d="M426.6,137.8l-2.6,3.5l-2.1,0.3l-3.1-3.8v9.3h-5.1v-19.1h3.5l5.8,7.3l5.3-7.3h3.4V147h-5.1V137.8z"/>
		<path class="st1" d="M450.1,145.8l1.7-3.9c0.5,0.3,1.2,0.6,2.1,0.8c0.9,0.3,1.7,0.4,2.4,0.4c0.7,0,1.4-0.2,1.8-0.5
			c0.5-0.3,0.7-0.7,0.7-1c0-0.2-0.2-0.5-0.5-0.7c-0.3-0.2-0.9-0.6-1.6-1l-0.9-0.5c-1.3-0.7-2.3-1.4-3-1.9c-0.7-0.5-1.4-1.1-1.9-1.9
			c-0.6-0.8-0.8-1.7-0.8-2.7c0-1.1,0.3-2,0.9-2.8c0.6-0.8,1.4-1.5,2.5-2c1.1-0.5,2.3-0.7,3.7-0.7c1,0,2,0.1,3,0.4
			c1,0.3,1.9,0.7,2.6,1.2l-1.5,3.5c-1-0.3-1.8-0.6-2.3-0.7c-0.5-0.1-1.1-0.2-1.8-0.2c-0.6,0-1,0.1-1.4,0.4c-0.3,0.3-0.5,0.6-0.5,1
			c0,0.3,0.1,0.5,0.4,0.7c0.3,0.2,0.8,0.5,1.5,0.9l1,0.6c1.2,0.7,2.2,1.3,3,1.9c0.8,0.6,1.5,1.2,2,2c0.6,0.8,0.8,1.7,0.8,2.6
			c0,1.1-0.3,2.1-0.9,2.9s-1.5,1.5-2.7,2c-1.2,0.5-2.5,0.7-4,0.7c-1,0-2.1-0.2-3.3-0.5C451.8,146.6,450.8,146.3,450.1,145.8z"/>
	</g>
</g>
</svg>
